<svg viewBox="236.718 235.213 25.312 23.449" xmlns="http://www.w3.org/2000/svg">
  <path d="M 258.25 246.256 C 258.972 245.841 259.397 245.056 259.397 244.27 C 259.397 242.946 258.292 241.913 256.976 241.913 C 255.617 241.913 254.556 242.989 254.556 244.27 C 254.556 245.098 254.98 245.841 255.702 246.256 L 255.702 246.545 L 249.798 246.545 L 249.798 240.879 C 249.798 240.631 249.629 240.466 249.374 240.466 L 248.227 240.466 C 248.057 240.466 247.93 240.548 247.845 240.714 C 247.589 241.251 247.037 241.582 246.4 241.582 C 245.976 241.582 245.594 241.417 245.297 241.127 C 244.999 240.837 244.83 240.466 244.83 240.051 C 244.83 239.225 245.552 238.521 246.4 238.521 C 246.996 238.521 247.547 238.853 247.803 239.39 C 247.888 239.514 248.014 239.638 248.184 239.638 L 249.374 239.638 C 249.629 239.638 249.798 239.473 249.798 239.225 L 249.798 235.213 L 261.223 235.213 C 261.689 235.213 262.03 235.585 262.03 235.999 L 262.03 246.545 L 258.25 246.545 L 258.25 246.256 Z" fill="#946161" style=""/>
  <path d="M 252.346 256.222 C 253.663 256.222 254.767 255.147 254.767 253.864 C 254.767 252.541 253.663 251.506 252.346 251.506 C 251.497 251.506 250.732 251.921 250.308 252.624 L 249.798 252.624 L 249.798 247.371 L 256.083 247.371 C 256.34 247.371 256.508 247.206 256.508 246.958 L 256.508 246.008 C 256.508 245.841 256.423 245.717 256.254 245.635 C 255.702 245.387 255.363 244.849 255.363 244.228 C 255.363 243.36 256.083 242.698 256.933 242.698 C 257.783 242.698 258.505 243.402 258.505 244.228 C 258.505 244.808 258.165 245.345 257.614 245.635 C 257.486 245.717 257.357 245.841 257.357 246.008 L 257.357 246.958 C 257.357 247.206 257.528 247.371 257.783 247.371 L 262.03 247.371 L 262.03 257.877 C 262.03 258.331 261.648 258.662 261.223 258.662 L 249.798 258.662 L 249.798 255.106 L 250.265 255.106 C 250.732 255.808 251.497 256.222 252.346 256.222 Z" fill="#39b3ed" style=""/>
  <path d="M 240.667 247.662 C 239.946 248.075 239.52 248.86 239.52 249.646 C 239.52 250.97 240.625 252.004 241.941 252.004 C 243.3 252.004 244.363 250.928 244.363 249.646 C 244.363 248.82 243.937 248.075 243.215 247.662 L 243.215 247.371 L 248.949 247.371 L 248.949 253.037 C 248.949 253.285 249.119 253.452 249.374 253.452 L 250.521 253.452 C 250.69 253.452 250.817 253.368 250.903 253.204 C 251.2 252.666 251.751 252.335 252.346 252.335 C 253.239 252.335 253.918 253.037 253.918 253.864 C 253.918 254.692 253.196 255.395 252.346 255.395 C 251.751 255.395 251.2 255.064 250.946 254.526 C 250.86 254.402 250.732 254.279 250.563 254.279 L 249.374 254.279 C 249.119 254.279 248.949 254.443 248.949 254.692 L 248.949 258.662 L 237.525 258.662 C 237.058 258.662 236.718 258.29 236.718 257.877 L 236.718 247.371 L 240.668 247.371 L 240.668 247.662 L 240.667 247.662 Z" fill="#1d68a5" style=""/>
  <path d="M 237.525 235.213 L 248.949 235.213 L 248.949 238.811 L 248.481 238.811 C 248.057 238.108 247.25 237.694 246.443 237.694 C 245.084 237.694 244.023 238.769 244.023 240.051 C 244.023 240.672 244.277 241.292 244.745 241.706 C 245.126 242.161 245.763 242.409 246.4 242.409 C 247.25 242.409 248.014 241.996 248.481 241.292 L 248.949 241.292 L 248.949 246.545 L 242.834 246.545 C 242.578 246.545 242.409 246.71 242.409 246.958 L 242.409 247.91 C 242.409 248.075 242.494 248.199 242.664 248.282 C 243.215 248.53 243.556 249.068 243.556 249.688 C 243.556 250.515 242.834 251.218 241.984 251.218 C 241.092 251.218 240.413 250.515 240.413 249.688 C 240.413 249.108 240.752 248.571 241.305 248.282 C 241.431 248.199 241.559 248.075 241.559 247.91 L 241.559 246.958 C 241.559 246.71 241.389 246.545 241.135 246.545 L 236.76 246.545 L 236.76 236.041 C 236.718 235.585 237.1 235.213 237.525 235.213 Z" fill="#39b3ed" style=""/>
</svg>
